<svg fill="none" height="117" viewBox="0 0 140 117" width="140" xmlns="http://www.w3.org/2000/svg" xmlns:xlink="http://www.w3.org/1999/xlink"><clipPath id="a"><path d="m0 0h140v117h-140z"/></clipPath><g clip-path="url(#a)" fill="#fff"><path d="m.0292969 84.387v-25.3658h10.6338031c7.0535 0 12.3558 5.6888 12.3558 12.6829 0 7.0331-5.3023 12.6829-12.3558 12.6829zm6.2168131-5.2894h3.25921c4.63098 0 7.26758-3.1853 7.26758-7.3935 0-4.2081-2.6366-7.3935-7.26758-7.3935h-3.25921z"/><path d="m35.0732 84.7864c-5.6525 0-10.2544-4.3445-10.2544-9.78 0-5.4356 4.6019-9.7801 10.2544-9.7801 5.6914 0 10.2543 4.3835 10.2543 9.7801-.0097 5.3965-4.5726 9.78-10.2543 9.78zm0-5.153c2.5976 0 4.4267-1.919 4.4267-4.6368 0-2.7177-1.8291-4.6757-4.4267-4.6757s-4.4267 1.958-4.4267 4.6757c0 2.7178 1.8291 4.6368 4.4267 4.6368z"/><path d="m57.2937 65.2166c2.2085 0 4.884.6136 7.5789 2.8638-.4962.7598-2.3544 3.3315-2.8409 4.0913-1.615-1.4807-3.444-1.7437-4.3877-1.7437-2.7728 0-4.7089 1.8801-4.7089 4.5686 0 2.6788 1.9264 4.5978 4.7089 4.5978.9145 0 2.7727-.2533 4.3877-1.7437.4962.7598 2.3545 3.3315 2.8409 4.0913-2.7047 2.2502-5.3704 2.8249-7.5789 2.8249-6.2168 0-10.4294-4.2763-10.4294-9.78 0-5.5038 4.2126-9.7703 10.4294-9.7703z"/><path d="m75.0883 84.7862c-3.1911 0-6.5963-1.2663-6.5963-6.7408v-7.7149h-2.6365v-4.7147h3.1619l.8075-4.6075h4.6699v4.6075h4.7769v4.7147h-4.7769v8.0461c0 .828.3502 1.4514 1.1578 1.4514.9145 0 1.2258-.8377 1.2258-1.6267 0-.6527-.1751-1.3735-.2821-1.6365h4.3196c.3503.6526.4962 1.5196.5254 2.2502 0 3.76-2.5295 5.9712-6.353 5.9712z"/><path d="m92.5322 84.7864c-5.6526 0-10.2544-4.3445-10.2544-9.78 0-5.4356 4.6018-9.7801 10.2544-9.7801 5.6914 0 10.2548 4.3835 10.2548 9.7801 0 5.3965-4.5634 9.78-10.2548 9.78zm0-5.153c2.5976 0 4.4267-1.919 4.4267-4.6368 0-2.7177-1.8291-4.6757-4.4267-4.6757-2.5977 0-4.4267 1.958-4.4267 4.6757.0097 2.7178 1.829 4.6368 4.4267 4.6368z"/><path d="m111.251 69.639c.593-3.5555 3.716-4.4224 5.059-4.4224.564 0 .632 0 1.226.1071v6.0882c-.808-.2143-1.79-.2533-2.286-.2533-2.355 0-3.795 1.5586-3.795 3.838v9.3904h-6.041v-18.7711h5.827v4.0231z"/><path d="m119.355 68.2556c1.576-.7988 2.598-2.4645 2.637-4.023-1.752.0389-2.841-1.4904-2.841-2.8639-.068-1.7729 1.128-3.1854 3.269-3.1854 2.558 0 3.269 2.3964 3.269 3.6627 0 3.4386-1.752 7.1792-4.952 8.5137z"/><path d="m128.763 77.6851c.457 1.997 2.034 2.5717 3.473 2.5717 1.09 0 2.102-.3604 2.102-1.2274 0-.5065-.311-.7987-1.304-1.2274l-3.016-1.3053c-2.88-1.091-4.845-2.932-4.845-5.5816 0-3.4386 3.337-5.6888 7.404-5.6888 2.529 0 5.331.867 6.917 4.2763l-4.533 1.7729c-.458-1.3735-1.723-1.6657-2.462-1.6657-.983 0-1.722.5065-1.722 1.2663 0 .6527.594 1.0131 1.508 1.3443l2.423 1.0131c4.212 1.5975 5.263 3.8087 5.263 5.7959 0 3.7698-3.687 5.757-7.832 5.757-3.366 0-6.81-1.3053-7.793-5.2894z"/><path d="m6.46977 116.601h-6.46977v-25.3661h6.46977v11.3481l6.98543-11.3481h6.5476v.8669l-7.4232 11.4162 2.8506 5.436c1.3523 2.61 2.0139 2.864 3.3273 2.864.4767 0 1.1674-.254 1.7901-.653.6908 1.52 1.4302 2.971 2.1209 4.461-1.9069 1.014-3.2203 1.374-5.1563 1.374-3.0744 0-5.8472-1.559-7.56918-5.26l-3.47325-6.926z"/><path d="m28.1069 89.9978c2.3058 0 3.7651 1.3443 3.7651 3.1853 0 1.8119-1.5372 3.1561-3.7651 3.1561-2.2668 0-3.7651-1.3442-3.7651-3.1561 0-1.841 1.4302-3.1853 3.7651-3.1853zm-3.1814 7.8318h6.285v18.7714h-6.285z"/><path d="m44.121 117c-3.3273 0-6.8686-1.266-6.8686-6.741v-7.715h-2.7436v-4.7145h3.2884l.8367-4.5978h4.8645v4.5978h4.9715v4.7145h-4.9715v8.046c0 .828.3697 1.452 1.2064 1.452.9534 0 1.2842-.838 1.2842-1.627 0-.653-.1849-1.374-.2919-1.627h4.4948c.3697.653.5156 1.52.5448 2.25 0 3.751-2.6268 5.962-6.6157 5.962z"/><path d="m63.1993 97.4302c2.3058 0 5.0786.6137 7.9 2.8638-.5157.76-2.4517 3.332-2.9576 4.091-1.6832-1.48-3.5803-1.743-4.5727-1.743-2.8895 0-4.9034 1.88-4.9034 4.568 0 2.679 2.0139 4.598 4.9034 4.598.9535 0 2.8895-.253 4.5727-1.744.5156.76 2.4517 3.332 2.9576 4.092-2.8117 2.25-5.5942 2.825-7.9 2.825-6.4697 0-10.8575-4.277-10.8575-9.781 0-5.503 4.3878-9.7698 10.8575-9.7698z"/><path d="m74.2031 90.3972h6.285v9.8968c1.3523-1.9968 3.2202-2.8637 5.633-2.8637 5.5164 0 6.6936 4.5687 6.6936 8.6597v10.511h-6.285v-10.151c0-2.133-.6907-4.023-2.9965-4.023-2.2668 0-3.0354 1.88-3.0354 4.023v10.151h-6.2849v-26.2038z"/><path d="m96.064 107.288c0-5.367 4.057-9.8578 10.566-9.8578 5.74 0 10.089 3.5168 10.089 10.1498 0 .254 0 .546-.039.799h-14.584c.078 1.705 2.043 3.624 5.633 3.624 1.829 0 3.541-.653 5.195-2.026.516.506 2.598 3.078 3.104 3.555-2.52 2.65-5.779 3.478-8.844 3.478-7.024-.01-11.12-4.364-11.12-9.722zm6.1-2.25h8.63c-.224-2.133-2.345-2.971-4.203-2.971-1.79 0-4.057.799-4.427 2.971z"/><path d="m120.075 97.8296h6.285v2.4644c1.352-1.9969 3.22-2.8638 5.633-2.8638 5.517 0 6.694 4.5688 6.694 8.6598v10.511h-6.285v-10.151c0-1.811-.691-4.023-2.997-4.023-2.267 0-3.035 1.88-3.035 4.023v10.151h-6.285v-18.7714z"/><path d="m85.9945 26.2715c3.2203-2.6495 6.8492-5.4452 8.328-5.9128 3.5608-1.1299 2.5101-4.5393 1.2551-6.3025-1.2551-1.7631-4.3781-3.4873-6.2558-.7305-1.2161 1.7826-8.7074 6.5265-12.5601 8.8936-1.0701.6624-2.1695 1.2663-3.2981 1.8215l-33.0396-5.8738c-2.8798 16.2189 7.9291 31.6974 24.1279 34.5808 16.1987 2.8833 31.6678-7.939 34.5378-24.1579zm-20.4503 20.9141c-11.0326-1.9579-19.2147-11.3386-19.8763-22.3363l46.2321 8.2118c-4.4072 10.1015-15.3134 16.0922-26.3558 14.1245z"/><path d="m63.4234 19.1218c-.0194.0779-.1654.185-.2529.1753-2.0626-.1559-4.0181-.6429-5.7985-1.7436-1.975-1.2274-3.2592-2.9711-3.9402-5.1726-.5935-1.9287-.6616-3.88664-.4086-5.87382.0486-.39939.0778-.41887.4767-.37016 2.1403.25326 4.2321.68187 6.1292 1.76313 2.4031 1.36375 3.8138 3.41915 4.1835 6.15635.0194 0 .4572 2.9418-.3892 5.0654z"/><path d="m84.1656.857116c.0097-.087669-.1167-.263008-.2043-.282491-2.3155-.6039459-4.6505-.789026-7.0049-.243526-2.6171.603946-4.6796 2.055361-6.246 4.217881-1.362 1.88977-2.1695 4.02306-2.6268 6.29272-.0875.4578-.0681.4871.3892.5845 2.4419.526 4.8936.828 7.3843.3507 3.1424-.604 5.4579-2.32816 6.8783-5.20178 0-.00974 1.5664-3.07817 1.4302-5.718004z"/><path d="m73.0159 18.1087c.2529-1.4221-.7005-2.7859-2.1209-3.0392-1.4205-.2532-2.7825.7014-3.0355 2.1236-.2529 1.4222.7005 2.7859 2.1209 3.0392 1.4302.2533 2.7825-.7014 3.0355-2.1236z"/><path d="m12.5505 36.5291v3.2535h-4.3294v12.3614h-3.94024v-12.3614h-4.2515631v-3.2535z"/><path d="m14.2139 36.0127h3.8332v6.0882c.8269-1.2274 1.9652-1.7632 3.4343-1.7632 3.3662 0 4.0765 2.8055 4.0765 5.3284v6.4681h-3.8333v-6.2441c0-1.315-.428-2.4742-1.829-2.4742-1.3815 0-1.8485 1.1592-1.8485 2.4742v6.2441h-3.8332z"/><path d="m27.3091 46.4066c0-3.3022 2.4711-6.0687 6.4406-6.0687 3.5024 0 6.1487 2.1625 6.1487 6.244 0 .1559 0 .3312-.0195.4871h-8.8923c.0487 1.052 1.2453 2.2307 3.4344 2.2307 1.1188 0 2.1598-.3994 3.1619-1.2469.3113.3117 1.5858 1.8995 1.8971 2.182-1.5371 1.6268-3.5219 2.1431-5.3898 2.1431-4.2808.0097-6.7811-2.6691-6.7811-5.9713zm3.7262-1.3833h5.2536c-.1362-1.315-1.4301-1.8313-2.5587-1.8313-1.0896 0-2.4712.4968-2.6949 1.8313z"/></g></svg>